<?xml version="1.0" standalone="no"?>
<!DOCTYPE svg PUBLIC "-//W3C//DTD SVG 20010904//EN"
 "http://www.w3.org/TR/2001/REC-SVG-20010904/DTD/svg10.dtd">
<svg version="1.0" xmlns="http://www.w3.org/2000/svg"
 width="1900.000000pt" height="1900.000000pt" viewBox="0 0 1900.000000 1900.000000"
 preserveAspectRatio="xMidYMid meet">
<metadata>
Created by potrace 1.11, written by Peter Selinger 2001-2013
</metadata>
<g transform="translate(0.000000,1900.000000) scale(0.100000,-0.100000)"
fill="#000000" stroke="none">
<path d="M6794 18938 c0 -35 -4 -216 -8 -403 -6 -310 -9 -461 -21 -1040 -2
-104 -4 -209 -4 -233 l-1 -43 -52 29 c-29 16 -69 39 -88 50 -19 12 -44 26 -55
31 -11 5 -80 43 -154 85 -73 42 -135 76 -137 76 -2 0 -64 39 -138 88 -74 48
-192 123 -261 167 -69 44 -182 117 -252 163 -70 45 -130 82 -134 82 -15 0 110
-222 155 -275 28 -33 61 -71 73 -85 11 -14 65 -77 118 -140 53 -63 106 -126
118 -140 12 -14 46 -54 76 -90 29 -36 56 -67 60 -70 13 -11 101 -118 101 -124
0 -11 -825 -7 -881 5 -50 10 -90 18 -114 23 -51 11 -74 16 -95 20 -14 2 -61
12 -105 21 -44 9 -89 19 -100 21 -11 2 -29 6 -40 8 -271 56 -276 57 -505 71
-52 4 -115 8 -140 10 -25 2 -94 6 -155 10 -60 3 -137 8 -170 10 -159 12 -361
26 -420 30 -221 13 -276 16 -315 20 -25 3 -83 7 -130 10 -47 3 -113 8 -147 10
l-63 5 0 -60 c0 -64 -2 -62 70 -74 14 -2 36 -7 50 -10 14 -3 41 -8 60 -10 19
-3 60 -10 90 -16 76 -15 83 -17 183 -34 125 -23 248 -45 277 -51 14 -3 39 -8
55 -10 66 -12 141 -25 165 -30 68 -13 258 -48 276 -50 11 -2 45 -8 75 -14 31
-7 66 -14 80 -16 92 -15 163 -28 224 -40 39 -8 86 -17 105 -20 35 -6 188 -34
225 -41 47 -10 81 -16 100 -18 11 -2 34 -6 50 -9 17 -4 41 -8 55 -11 14 -2 52
-9 85 -15 64 -12 99 -18 143 -26 34 -6 173 -32 275 -51 42 -9 89 -17 102 -20
41 -7 67 -11 134 -24 36 -6 72 -12 82 -13 10 -1 16 -4 14 -8 -4 -5 -47 -11
-195 -25 -14 -1 -43 -4 -65 -7 -22 -3 -67 -9 -100 -12 -33 -4 -71 -8 -85 -10
-14 -2 -54 -7 -90 -10 -36 -4 -69 -9 -75 -12 -5 -3 -5 0 1 6 6 7 18 13 25 15
17 3 232 86 238 92 5 4 -23 1 -96 -11 -18 -3 -46 -7 -63 -9 -16 -3 -37 -7 -47
-10 -10 -3 -36 -8 -58 -11 -23 -3 -52 -7 -65 -10 -13 -3 -40 -7 -60 -10 -20
-3 -47 -8 -60 -10 -14 -3 -52 -10 -85 -15 -57 -9 -76 -13 -135 -25 -14 -2 -41
-7 -60 -10 -19 -3 -46 -7 -60 -10 -14 -2 -41 -7 -60 -9 -19 -3 -46 -8 -60 -11
-14 -3 -41 -8 -60 -11 -223 -34 -319 -54 -327 -67 -3 -6 -2 -7 3 -4 5 3 37 8
69 12 33 4 71 8 85 10 14 2 52 7 85 10 33 4 71 8 85 10 14 2 57 7 95 11 39 3
78 8 87 10 9 1 48 6 85 9 37 4 75 9 83 10 8 2 44 6 80 10 36 3 76 8 90 10 56
8 154 14 140 8 -8 -3 -172 -66 -365 -140 -192 -73 -359 -138 -370 -143 -11 -5
-87 -34 -170 -65 -82 -31 -163 -63 -180 -70 -16 -7 -93 -36 -170 -64 -77 -29
-153 -59 -170 -66 -29 -12 -756 -293 -880 -340 -51 -19 -747 -288 -782 -302
-17 -7 -17 58 -1 79 7 9 33 33 56 52 l44 36 -56 0 -56 0 0 -49 c0 -44 -3 -51
-36 -77 -20 -16 -42 -34 -49 -41 -6 -6 -39 -34 -72 -61 -33 -28 -81 -81 -106
-119 -24 -37 -132 -201 -239 -363 -157 -238 -300 -447 -458 -670 -76 -107
-282 -400 -316 -450 -25 -36 -72 -103 -105 -150 -33 -47 -71 -101 -84 -120
-13 -19 -37 -53 -53 -75 -35 -49 -40 -70 -199 -780 -13 -60 -26 -117 -28 -125
-2 -8 -22 -96 -45 -195 -23 -99 -43 -191 -46 -205 -2 -14 -9 -47 -14 -75 -5
-27 -12 -63 -15 -80 -2 -16 -9 -55 -15 -85 -14 -68 -19 -93 -24 -122 -5 -27
-36 -193 -42 -223 -2 -11 -13 -69 -25 -130 -11 -60 -29 -154 -40 -209 -18 -94
-19 -149 -19 -1228 0 -1000 2 -1137 16 -1200 9 -38 17 -75 18 -82 2 -6 6 -22
9 -36 3 -14 20 -90 37 -170 17 -80 35 -163 40 -185 14 -59 53 -238 56 -252 22
-121 -35 -56 689 -779 l664 -664 57 -108 c31 -59 81 -154 112 -212 30 -58 74
-141 97 -185 50 -95 162 -307 202 -385 l29 -55 196 -3 196 -2 698 -699 c385
-384 706 -698 714 -698 19 0 107 -11 140 -18 14 -3 43 -7 65 -10 22 -3 51 -7
65 -9 14 -3 45 -7 70 -10 80 -10 124 -16 150 -21 14 -3 43 -7 65 -11 22 -3 51
-7 64 -9 13 -2 45 -7 70 -11 25 -3 57 -8 71 -10 14 -2 61 -8 105 -14 44 -6 91
-13 105 -16 21 -3 129 -19 270 -40 19 -2 46 -7 60 -9 34 -6 163 -25 172 -25 4
0 9 61 10 136 l3 137 108 -159 c59 -88 120 -177 135 -199 15 -22 80 -116 143
-210 63 -93 160 -235 214 -315 54 -80 141 -208 193 -285 53 -77 119 -174 147
-215 28 -41 89 -131 136 -200 83 -124 98 -141 148 -170 51 -30 116 -75 119
-82 2 -5 8 -8 12 -8 5 0 69 -40 142 -88 73 -49 194 -128 268 -177 74 -49 234
-154 355 -233 121 -80 244 -161 274 -180 46 -29 256 -142 641 -344 52 -28 103
-55 113 -60 17 -9 15 -11 -15 -28 -18 -9 -121 -67 -228 -127 -107 -60 -216
-122 -242 -136 -27 -15 -69 -39 -95 -54 -27 -14 -113 -63 -193 -108 -80 -44
-152 -84 -160 -88 -8 -4 -28 -15 -45 -25 -16 -10 -55 -32 -85 -49 -30 -16
-107 -59 -170 -95 -63 -36 -146 -82 -185 -103 -38 -21 -95 -52 -125 -70 -30
-18 -131 -76 -225 -128 -93 -52 -192 -107 -220 -122 -276 -155 -371 -208 -374
-211 -2 -2 2899 -4 6447 -4 l6452 0 -2 593 -3 592 -698 350 c-383 193 -701
355 -705 360 -5 6 -25 60 -44 120 -20 61 -68 208 -107 327 l-72 218 -94 137
c-52 76 -98 143 -102 148 -5 6 -85 122 -178 258 -94 136 -215 313 -270 392
-55 80 -121 175 -147 213 -53 78 -18 60 -428 222 -140 55 -264 104 -275 109
-141 63 -177 71 -318 71 l-137 0 5 63 c3 34 8 91 11 127 4 36 7 85 9 110 4 73
16 212 20 250 2 19 7 75 10 124 4 49 8 96 10 105 1 9 6 65 10 126 4 60 9 118
10 130 2 11 6 61 10 110 3 50 8 113 10 142 4 34 -1 75 -14 125 -11 40 -22 84
-25 98 -5 24 -33 137 -42 170 -10 39 -35 137 -39 155 -3 11 -62 245 -132 520
l-128 500 -5 2150 -5 2150 -23 70 c-12 39 -27 86 -32 105 -18 60 -111 404
-115 420 -4 22 -152 566 -170 625 -8 28 -33 120 -55 205 -73 274 -102 375
-114 395 -7 11 -28 47 -46 80 -18 33 -41 74 -52 90 -10 17 -22 39 -27 50 -5
11 -32 60 -60 108 -28 49 -51 90 -51 91 0 2 -22 41 -48 87 -27 46 -62 109 -79
139 -17 30 -47 84 -68 120 -20 36 -49 86 -64 111 -20 37 -159 268 -254 424 -7
10 -30 49 -51 85 -22 36 -54 88 -73 117 -18 28 -33 54 -33 57 0 9 -104 169
-128 197 -25 30 -73 89 -133 166 -53 67 -325 410 -554 698 -87 110 -164 205
-169 211 -6 6 -49 53 -96 104 -47 50 -101 109 -120 130 -19 21 -73 80 -120
131 -175 192 -214 229 -298 291 -48 34 -94 68 -102 75 -81 67 -476 354 -493
358 -12 2 -51 11 -87 20 -36 8 -74 17 -85 19 -11 3 -60 14 -110 26 -49 12
-101 24 -115 27 -14 2 -68 15 -120 28 -52 13 -106 26 -120 29 -14 2 -74 16
-135 31 -148 36 -148 36 -155 27 -3 -4 -21 -19 -40 -32 -39 -27 -42 -29 -85
-63 -16 -13 -105 -81 -198 -151 -162 -123 -167 -126 -177 -104 -6 13 -68 160
-139 328 l-129 305 -196 3 -195 2 -88 -56 c-48 -31 -104 -66 -123 -79 -19 -12
-79 -51 -133 -85 -96 -61 -148 -115 -242 -251 l-20 -29 -472 0 -473 0 0 141
c0 129 -1 140 -17 135 -14 -4 -319 -73 -358 -80 -117 -24 -125 -27 -180 -82
-35 -35 -57 -50 -60 -42 -3 7 -34 96 -69 198 -35 102 -84 244 -109 315 -47
134 -49 148 -62 400 -3 55 -7 138 -10 185 -2 47 -7 137 -10 200 -3 63 -7 138
-10 165 -2 28 -7 115 -11 195 -3 79 -8 160 -9 180 -2 19 -4 47 -4 63 l-1 27
-83 0 -82 0 -1 -62z"/>
<path d="M3980 16459 c-25 -4 -76 -10 -115 -13 -38 -4 -81 -9 -95 -11 -14 -2
-54 -7 -90 -10 -36 -4 -72 -9 -80 -10 -8 -1 -44 -6 -80 -9 -36 -4 -74 -9 -85
-11 -11 -2 -29 -4 -41 -4 -12 -1 -32 -10 -45 -22 -13 -11 -35 -30 -49 -41 -48
-41 -175 -152 -195 -171 l-20 -19 20 11 c70 37 185 79 379 136 213 64 274 82
306 93 8 3 22 7 30 8 8 2 74 22 145 43 122 38 126 47 15 30z"/>
<path d="M3005 16105 c-51 -24 -129 -60 -242 -111 -35 -16 -63 -32 -63 -37 0
-4 4 -6 8 -3 5 3 22 8 38 11 171 31 171 31 250 100 41 36 71 65 67 64 -4 0
-30 -11 -58 -24z"/>
<path d="M2545 15925 c-33 -8 -75 -16 -94 -20 -70 -12 -83 -18 -97 -49 -8 -17
-34 -68 -58 -114 -24 -45 -39 -79 -32 -75 14 9 65 51 185 153 69 60 122 93
176 111 l20 7 -20 0 c-11 0 -47 -6 -80 -13z"/>
<path d="M2190 15600 c-44 -38 -45 -39 -18 -40 22 0 32 8 48 40 11 22 19 40
18 40 -2 0 -23 -18 -48 -40z"/>
</g>
</svg>
